<svg width="880" height="192" viewBox="0 0 880 192" xmlns="http://www.w3.org/2000/svg">
  <rect width="100%" height="100%" rx="10" fill="#0d1117" />
  <defs>
    <filter id="dino-glow" x="-20%" y="-20%" width="140%" height="140%">
      <feGaussianBlur stdDeviation="1.5" result="blur" />
      <feMerge>
        <feMergeNode in="blur" />
        <feMergeNode in="SourceGraphic" />
      </feMerge>
    </filter>
  </defs>
  <style>
    .leg-1 { animation: run-legs-1 0.3s steps(1) infinite; }
    .leg-2 { animation: run-legs-2 0.3s steps(1) infinite; }
    @keyframes run-legs-1 {
      0%, 100% { opacity: 1; }
      50% { opacity: 0; }
    }
    @keyframes run-legs-2 {
      0%, 100% { opacity: 0; }
      50% { opacity: 1; }
    }
  </style>
  <rect x="40" y="35" width="12" height="12" rx="2" fill="#161b22" />
  <rect x="40" y="50" width="12" height="12" rx="2" fill="#0e4429" />
  <rect x="40" y="65" width="12" height="12" rx="2" fill="#26a641" />
  <rect x="40" y="80" width="12" height="12" rx="2" fill="#006d32" />
  <rect x="40" y="95" width="12" height="12" rx="2" fill="#0e4429" />
  <rect x="40" y="110" width="12" height="12" rx="2" fill="#0e4429" />
  <rect x="40" y="125" width="12" height="12" rx="2" fill="#26a641" />
  <rect x="55" y="35" width="12" height="12" rx="2" fill="#161b22" />
  <rect x="55" y="50" width="12" height="12" rx="2" fill="#0e4429" />
  <rect x="55" y="65" width="12" height="12" rx="2" fill="#26a641" />
  <rect x="55" y="80" width="12" height="12" rx="2" fill="#161b22" />
  <rect x="55" y="95" width="12" height="12" rx="2" fill="#006d32" />
  <rect x="55" y="110" width="12" height="12" rx="2" fill="#161b22" />
  <rect x="55" y="125" width="12" height="12" rx="2" fill="#161b22" />
  <rect x="70" y="35" width="12" height="12" rx="2" fill="#161b22" />
  <rect x="70" y="50" width="12" height="12" rx="2" fill="#161b22" />
  <rect x="70" y="65" width="12" height="12" rx="2" fill="#161b22" />
  <rect x="70" y="80" width="12" height="12" rx="2" fill="#161b22" />
  <rect x="70" y="95" width="12" height="12" rx="2" fill="#161b22" />
  <rect x="70" y="110" width="12" height="12" rx="2" fill="#006d32" />
  <rect x="70" y="125" width="12" height="12" rx="2" fill="#39d353" />
  <rect x="85" y="35" width="12" height="12" rx="2" fill="#006d32" />
  <rect x="85" y="50" width="12" height="12" rx="2" fill="#0e4429" />
  <rect x="85" y="65" width="12" height="12" rx="2" fill="#161b22" />
  <rect x="85" y="80" width="12" height="12" rx="2" fill="#0e4429" />
  <rect x="85" y="95" width="12" height="12" rx="2" fill="#161b22" />
  <rect x="85" y="110" width="12" height="12" rx="2" fill="#39d353" />
  <rect x="85" y="125" width="12" height="12" rx="2" fill="#39d353" />
  <rect x="100" y="35" width="12" height="12" rx="2" fill="#39d353" />
  <rect x="100" y="50" width="12" height="12" rx="2" fill="#0e4429" />
  <rect x="100" y="65" width="12" height="12" rx="2" fill="#161b22" />
  <rect x="100" y="80" width="12" height="12" rx="2" fill="#0e4429" />
  <rect x="100" y="95" width="12" height="12" rx="2" fill="#161b22" />
  <rect x="100" y="110" width="12" height="12" rx="2" fill="#161b22" />
  <rect x="100" y="125" width="12" height="12" rx="2" fill="#0e4429" />
  <rect x="115" y="35" width="12" height="12" rx="2" fill="#0e4429" />
  <rect x="115" y="50" width="12" height="12" rx="2" fill="#0e4429" />
  <rect x="115" y="65" width="12" height="12" rx="2" fill="#0e4429" />
  <rect x="115" y="80" width="12" height="12" rx="2" fill="#161b22" />
  <rect x="115" y="95" width="12" height="12" rx="2" fill="#161b22" />
  <rect x="115" y="110" width="12" height="12" rx="2" fill="#161b22" />
  <rect x="115" y="125" width="12" height="12" rx="2" fill="#161b22" />
  <rect x="130" y="35" width="12" height="12" rx="2" fill="#006d32" />
  <rect x="130" y="50" width="12" height="12" rx="2" fill="#006d32" />
  <rect x="130" y="65" width="12" height="12" rx="2" fill="#006d32" />
  <rect x="130" y="80" width="12" height="12" rx="2" fill="#26a641" />
  <rect x="130" y="95" width="12" height="12" rx="2" fill="#26a641" />
  <rect x="130" y="110" width="12" height="12" rx="2" fill="#161b22" />
  <rect x="130" y="125" width="12" height="12" rx="2" fill="#0e4429" />
  <rect x="145" y="35" width="12" height="12" rx="2" fill="#39d353" />
  <rect x="145" y="50" width="12" height="12" rx="2" fill="#161b22" />
  <rect x="145" y="65" width="12" height="12" rx="2" fill="#006d32" />
  <rect x="145" y="80" width="12" height="12" rx="2" fill="#161b22" />
  <rect x="145" y="95" width="12" height="12" rx="2" fill="#26a641" />
  <rect x="145" y="110" width="12" height="12" rx="2" fill="#26a641" />
  <rect x="145" y="125" width="12" height="12" rx="2" fill="#161b22" />
  <rect x="160" y="35" width="12" height="12" rx="2" fill="#26a641" />
  <rect x="160" y="50" width="12" height="12" rx="2" fill="#0e4429" />
  <rect x="160" y="65" width="12" height="12" rx="2" fill="#161b22" />
  <rect x="160" y="80" width="12" height="12" rx="2" fill="#0e4429" />
  <rect x="160" y="95" width="12" height="12" rx="2" fill="#161b22" />
  <rect x="160" y="110" width="12" height="12" rx="2" fill="#0e4429" />
  <rect x="160" y="125" width="12" height="12" rx="2" fill="#161b22" />
  <rect x="175" y="35" width="12" height="12" rx="2" fill="#39d353" />
  <rect x="175" y="50" width="12" height="12" rx="2" fill="#161b22" />
  <rect x="175" y="65" width="12" height="12" rx="2" fill="#39d353" />
  <rect x="175" y="80" width="12" height="12" rx="2" fill="#006d32" />
  <rect x="175" y="95" width="12" height="12" rx="2" fill="#161b22" />
  <rect x="175" y="110" width="12" height="12" rx="2" fill="#0e4429" />
  <rect x="175" y="125" width="12" height="12" rx="2" fill="#161b22" />
  <rect x="190" y="35" width="12" height="12" rx="2" fill="#006d32" />
  <rect x="190" y="50" width="12" height="12" rx="2" fill="#26a641" />
  <rect x="190" y="65" width="12" height="12" rx="2" fill="#161b22" />
  <rect x="190" y="80" width="12" height="12" rx="2" fill="#39d353" />
  <rect x="190" y="95" width="12" height="12" rx="2" fill="#26a641" />
  <rect x="190" y="110" width="12" height="12" rx="2" fill="#26a641" />
  <rect x="190" y="125" width="12" height="12" rx="2" fill="#39d353" />
  <rect x="205" y="35" width="12" height="12" rx="2" fill="#006d32" />
  <rect x="205" y="50" width="12" height="12" rx="2" fill="#0e4429" />
  <rect x="205" y="65" width="12" height="12" rx="2" fill="#161b22" />
  <rect x="205" y="80" width="12" height="12" rx="2" fill="#0e4429" />
  <rect x="205" y="95" width="12" height="12" rx="2" fill="#006d32" />
  <rect x="205" y="110" width="12" height="12" rx="2" fill="#0e4429" />
  <rect x="205" y="125" width="12" height="12" rx="2" fill="#161b22" />
  <rect x="220" y="35" width="12" height="12" rx="2" fill="#39d353" />
  <rect x="220" y="50" width="12" height="12" rx="2" fill="#161b22" />
  <rect x="220" y="65" width="12" height="12" rx="2" fill="#161b22" />
  <rect x="220" y="80" width="12" height="12" rx="2" fill="#161b22" />
  <rect x="220" y="95" width="12" height="12" rx="2" fill="#39d353" />
  <rect x="220" y="110" width="12" height="12" rx="2" fill="#0e4429" />
  <rect x="220" y="125" width="12" height="12" rx="2" fill="#161b22" />
  <rect x="235" y="35" width="12" height="12" rx="2" fill="#26a641" />
  <rect x="235" y="50" width="12" height="12" rx="2" fill="#26a641" />
  <rect x="235" y="65" width="12" height="12" rx="2" fill="#26a641" />
  <rect x="235" y="80" width="12" height="12" rx="2" fill="#0e4429" />
  <rect x="235" y="95" width="12" height="12" rx="2" fill="#161b22" />
  <rect x="235" y="110" width="12" height="12" rx="2" fill="#161b22" />
  <rect x="235" y="125" width="12" height="12" rx="2" fill="#39d353" />
  <rect x="250" y="35" width="12" height="12" rx="2" fill="#39d353" />
  <rect x="250" y="50" width="12" height="12" rx="2" fill="#26a641" />
  <rect x="250" y="65" width="12" height="12" rx="2" fill="#161b22" />
  <rect x="250" y="80" width="12" height="12" rx="2" fill="#161b22" />
  <rect x="250" y="95" width="12" height="12" rx="2" fill="#161b22" />
  <rect x="250" y="110" width="12" height="12" rx="2" fill="#26a641" />
  <rect x="250" y="125" width="12" height="12" rx="2" fill="#0e4429" />
  <rect x="265" y="35" width="12" height="12" rx="2" fill="#161b22" />
  <rect x="265" y="50" width="12" height="12" rx="2" fill="#006d32" />
  <rect x="265" y="65" width="12" height="12" rx="2" fill="#0e4429" />
  <rect x="265" y="80" width="12" height="12" rx="2" fill="#161b22" />
  <rect x="265" y="95" width="12" height="12" rx="2" fill="#161b22" />
  <rect x="265" y="110" width="12" height="12" rx="2" fill="#006d32" />
  <rect x="265" y="125" width="12" height="12" rx="2" fill="#26a641" />
  <rect x="280" y="35" width="12" height="12" rx="2" fill="#39d353" />
  <rect x="280" y="50" width="12" height="12" rx="2" fill="#161b22" />
  <rect x="280" y="65" width="12" height="12" rx="2" fill="#161b22" />
  <rect x="280" y="80" width="12" height="12" rx="2" fill="#0e4429" />
  <rect x="280" y="95" width="12" height="12" rx="2" fill="#161b22" />
  <rect x="280" y="110" width="12" height="12" rx="2" fill="#0e4429" />
  <rect x="280" y="125" width="12" height="12" rx="2" fill="#161b22" />
  <rect x="295" y="35" width="12" height="12" rx="2" fill="#161b22" />
  <rect x="295" y="50" width="12" height="12" rx="2" fill="#39d353" />
  <rect x="295" y="65" width="12" height="12" rx="2" fill="#006d32" />
  <rect x="295" y="80" width="12" height="12" rx="2" fill="#0e4429" />
  <rect x="295" y="95" width="12" height="12" rx="2" fill="#39d353" />
  <rect x="295" y="110" width="12" height="12" rx="2" fill="#0e4429" />
  <rect x="295" y="125" width="12" height="12" rx="2" fill="#0e4429" />
  <rect x="310" y="35" width="12" height="12" rx="2" fill="#006d32" />
  <rect x="310" y="50" width="12" height="12" rx="2" fill="#26a641" />
  <rect x="310" y="65" width="12" height="12" rx="2" fill="#161b22" />
  <rect x="310" y="80" width="12" height="12" rx="2" fill="#0e4429" />
  <rect x="310" y="95" width="12" height="12" rx="2" fill="#006d32" />
  <rect x="310" y="110" width="12" height="12" rx="2" fill="#39d353" />
  <rect x="310" y="125" width="12" height="12" rx="2" fill="#0e4429" />
  <rect x="325" y="35" width="12" height="12" rx="2" fill="#0e4429" />
  <rect x="325" y="50" width="12" height="12" rx="2" fill="#006d32" />
  <rect x="325" y="65" width="12" height="12" rx="2" fill="#0e4429" />
  <rect x="325" y="80" width="12" height="12" rx="2" fill="#006d32" />
  <rect x="325" y="95" width="12" height="12" rx="2" fill="#39d353" />
  <rect x="325" y="110" width="12" height="12" rx="2" fill="#161b22" />
  <rect x="325" y="125" width="12" height="12" rx="2" fill="#26a641" />
  <rect x="340" y="35" width="12" height="12" rx="2" fill="#161b22" />
  <rect x="340" y="50" width="12" height="12" rx="2" fill="#39d353" />
  <rect x="340" y="65" width="12" height="12" rx="2" fill="#006d32" />
  <rect x="340" y="80" width="12" height="12" rx="2" fill="#161b22" />
  <rect x="340" y="95" width="12" height="12" rx="2" fill="#006d32" />
  <rect x="340" y="110" width="12" height="12" rx="2" fill="#006d32" />
  <rect x="340" y="125" width="12" height="12" rx="2" fill="#161b22" />
  <rect x="355" y="35" width="12" height="12" rx="2" fill="#006d32" />
  <rect x="355" y="50" width="12" height="12" rx="2" fill="#006d32" />
  <rect x="355" y="65" width="12" height="12" rx="2" fill="#0e4429" />
  <rect x="355" y="80" width="12" height="12" rx="2" fill="#0e4429" />
  <rect x="355" y="95" width="12" height="12" rx="2" fill="#26a641" />
  <rect x="355" y="110" width="12" height="12" rx="2" fill="#39d353" />
  <rect x="355" y="125" width="12" height="12" rx="2" fill="#0e4429" />
  <rect x="370" y="35" width="12" height="12" rx="2" fill="#006d32" />
  <rect x="370" y="50" width="12" height="12" rx="2" fill="#161b22" />
  <rect x="370" y="65" width="12" height="12" rx="2" fill="#161b22" />
  <rect x="370" y="80" width="12" height="12" rx="2" fill="#161b22" />
  <rect x="370" y="95" width="12" height="12" rx="2" fill="#161b22" />
  <rect x="370" y="110" width="12" height="12" rx="2" fill="#006d32" />
  <rect x="370" y="125" width="12" height="12" rx="2" fill="#161b22" />
  <rect x="385" y="35" width="12" height="12" rx="2" fill="#006d32" />
  <rect x="385" y="50" width="12" height="12" rx="2" fill="#006d32" />
  <rect x="385" y="65" width="12" height="12" rx="2" fill="#26a641" />
  <rect x="385" y="80" width="12" height="12" rx="2" fill="#161b22" />
  <rect x="385" y="95" width="12" height="12" rx="2" fill="#161b22" />
  <rect x="385" y="110" width="12" height="12" rx="2" fill="#006d32" />
  <rect x="385" y="125" width="12" height="12" rx="2" fill="#161b22" />
  <rect x="400" y="35" width="12" height="12" rx="2" fill="#0e4429" />
  <rect x="400" y="50" width="12" height="12" rx="2" fill="#39d353" />
  <rect x="400" y="65" width="12" height="12" rx="2" fill="#26a641" />
  <rect x="400" y="80" width="12" height="12" rx="2" fill="#006d32" />
  <rect x="400" y="95" width="12" height="12" rx="2" fill="#161b22" />
  <rect x="400" y="110" width="12" height="12" rx="2" fill="#0e4429" />
  <rect x="400" y="125" width="12" height="12" rx="2" fill="#161b22" />
  <rect x="415" y="35" width="12" height="12" rx="2" fill="#006d32" />
  <rect x="415" y="50" width="12" height="12" rx="2" fill="#161b22" />
  <rect x="415" y="65" width="12" height="12" rx="2" fill="#006d32" />
  <rect x="415" y="80" width="12" height="12" rx="2" fill="#0e4429" />
  <rect x="415" y="95" width="12" height="12" rx="2" fill="#006d32" />
  <rect x="415" y="110" width="12" height="12" rx="2" fill="#006d32" />
  <rect x="415" y="125" width="12" height="12" rx="2" fill="#0e4429" />
  <rect x="430" y="35" width="12" height="12" rx="2" fill="#006d32" />
  <rect x="430" y="50" width="12" height="12" rx="2" fill="#0e4429" />
  <rect x="430" y="65" width="12" height="12" rx="2" fill="#161b22" />
  <rect x="430" y="80" width="12" height="12" rx="2" fill="#39d353" />
  <rect x="430" y="95" width="12" height="12" rx="2" fill="#161b22" />
  <rect x="430" y="110" width="12" height="12" rx="2" fill="#26a641" />
  <rect x="430" y="125" width="12" height="12" rx="2" fill="#39d353" />
  <rect x="445" y="35" width="12" height="12" rx="2" fill="#006d32" />
  <rect x="445" y="50" width="12" height="12" rx="2" fill="#39d353" />
  <rect x="445" y="65" width="12" height="12" rx="2" fill="#26a641" />
  <rect x="445" y="80" width="12" height="12" rx="2" fill="#161b22" />
  <rect x="445" y="95" width="12" height="12" rx="2" fill="#0e4429" />
  <rect x="445" y="110" width="12" height="12" rx="2" fill="#006d32" />
  <rect x="445" y="125" width="12" height="12" rx="2" fill="#161b22" />
  <rect x="460" y="35" width="12" height="12" rx="2" fill="#006d32" />
  <rect x="460" y="50" width="12" height="12" rx="2" fill="#006d32" />
  <rect x="460" y="65" width="12" height="12" rx="2" fill="#006d32" />
  <rect x="460" y="80" width="12" height="12" rx="2" fill="#161b22" />
  <rect x="460" y="95" width="12" height="12" rx="2" fill="#0e4429" />
  <rect x="460" y="110" width="12" height="12" rx="2" fill="#0e4429" />
  <rect x="460" y="125" width="12" height="12" rx="2" fill="#161b22" />
  <rect x="475" y="35" width="12" height="12" rx="2" fill="#0e4429" />
  <rect x="475" y="50" width="12" height="12" rx="2" fill="#26a641" />
  <rect x="475" y="65" width="12" height="12" rx="2" fill="#161b22" />
  <rect x="475" y="80" width="12" height="12" rx="2" fill="#161b22" />
  <rect x="475" y="95" width="12" height="12" rx="2" fill="#161b22" />
  <rect x="475" y="110" width="12" height="12" rx="2" fill="#39d353" />
  <rect x="475" y="125" width="12" height="12" rx="2" fill="#161b22" />
  <rect x="490" y="35" width="12" height="12" rx="2" fill="#39d353" />
  <rect x="490" y="50" width="12" height="12" rx="2" fill="#39d353" />
  <rect x="490" y="65" width="12" height="12" rx="2" fill="#006d32" />
  <rect x="490" y="80" width="12" height="12" rx="2" fill="#161b22" />
  <rect x="490" y="95" width="12" height="12" rx="2" fill="#006d32" />
  <rect x="490" y="110" width="12" height="12" rx="2" fill="#26a641" />
  <rect x="490" y="125" width="12" height="12" rx="2" fill="#26a641" />
  <rect x="505" y="35" width="12" height="12" rx="2" fill="#006d32" />
  <rect x="505" y="50" width="12" height="12" rx="2" fill="#161b22" />
  <rect x="505" y="65" width="12" height="12" rx="2" fill="#006d32" />
  <rect x="505" y="80" width="12" height="12" rx="2" fill="#006d32" />
  <rect x="505" y="95" width="12" height="12" rx="2" fill="#161b22" />
  <rect x="505" y="110" width="12" height="12" rx="2" fill="#0e4429" />
  <rect x="505" y="125" width="12" height="12" rx="2" fill="#26a641" />
  <rect x="520" y="35" width="12" height="12" rx="2" fill="#161b22" />
  <rect x="520" y="50" width="12" height="12" rx="2" fill="#161b22" />
  <rect x="520" y="65" width="12" height="12" rx="2" fill="#0e4429" />
  <rect x="520" y="80" width="12" height="12" rx="2" fill="#39d353" />
  <rect x="520" y="95" width="12" height="12" rx="2" fill="#161b22" />
  <rect x="520" y="110" width="12" height="12" rx="2" fill="#26a641" />
  <rect x="520" y="125" width="12" height="12" rx="2" fill="#0e4429" />
  <rect x="535" y="35" width="12" height="12" rx="2" fill="#161b22" />
  <rect x="535" y="50" width="12" height="12" rx="2" fill="#161b22" />
  <rect x="535" y="65" width="12" height="12" rx="2" fill="#161b22" />
  <rect x="535" y="80" width="12" height="12" rx="2" fill="#26a641" />
  <rect x="535" y="95" width="12" height="12" rx="2" fill="#161b22" />
  <rect x="535" y="110" width="12" height="12" rx="2" fill="#39d353" />
  <rect x="535" y="125" width="12" height="12" rx="2" fill="#39d353" />
  <rect x="550" y="35" width="12" height="12" rx="2" fill="#0e4429" />
  <rect x="550" y="50" width="12" height="12" rx="2" fill="#0e4429" />
  <rect x="550" y="65" width="12" height="12" rx="2" fill="#161b22" />
  <rect x="550" y="80" width="12" height="12" rx="2" fill="#006d32" />
  <rect x="550" y="95" width="12" height="12" rx="2" fill="#0e4429" />
  <rect x="550" y="110" width="12" height="12" rx="2" fill="#161b22" />
  <rect x="550" y="125" width="12" height="12" rx="2" fill="#161b22" />
  <rect x="565" y="35" width="12" height="12" rx="2" fill="#26a641" />
  <rect x="565" y="50" width="12" height="12" rx="2" fill="#0e4429" />
  <rect x="565" y="65" width="12" height="12" rx="2" fill="#26a641" />
  <rect x="565" y="80" width="12" height="12" rx="2" fill="#006d32" />
  <rect x="565" y="95" width="12" height="12" rx="2" fill="#006d32" />
  <rect x="565" y="110" width="12" height="12" rx="2" fill="#006d32" />
  <rect x="565" y="125" width="12" height="12" rx="2" fill="#26a641" />
  <rect x="580" y="35" width="12" height="12" rx="2" fill="#39d353" />
  <rect x="580" y="50" width="12" height="12" rx="2" fill="#0e4429" />
  <rect x="580" y="65" width="12" height="12" rx="2" fill="#0e4429" />
  <rect x="580" y="80" width="12" height="12" rx="2" fill="#161b22" />
  <rect x="580" y="95" width="12" height="12" rx="2" fill="#39d353" />
  <rect x="580" y="110" width="12" height="12" rx="2" fill="#161b22" />
  <rect x="580" y="125" width="12" height="12" rx="2" fill="#0e4429" />
  <rect x="595" y="35" width="12" height="12" rx="2" fill="#0e4429" />
  <rect x="595" y="50" width="12" height="12" rx="2" fill="#26a641" />
  <rect x="595" y="65" width="12" height="12" rx="2" fill="#26a641" />
  <rect x="595" y="80" width="12" height="12" rx="2" fill="#0e4429" />
  <rect x="595" y="95" width="12" height="12" rx="2" fill="#26a641" />
  <rect x="595" y="110" width="12" height="12" rx="2" fill="#0e4429" />
  <rect x="595" y="125" width="12" height="12" rx="2" fill="#006d32" />
  <rect x="610" y="35" width="12" height="12" rx="2" fill="#006d32" />
  <rect x="610" y="50" width="12" height="12" rx="2" fill="#39d353" />
  <rect x="610" y="65" width="12" height="12" rx="2" fill="#39d353" />
  <rect x="610" y="80" width="12" height="12" rx="2" fill="#006d32" />
  <rect x="610" y="95" width="12" height="12" rx="2" fill="#0e4429" />
  <rect x="610" y="110" width="12" height="12" rx="2" fill="#0e4429" />
  <rect x="610" y="125" width="12" height="12" rx="2" fill="#161b22" />
  <rect x="625" y="35" width="12" height="12" rx="2" fill="#26a641" />
  <rect x="625" y="50" width="12" height="12" rx="2" fill="#0e4429" />
  <rect x="625" y="65" width="12" height="12" rx="2" fill="#161b22" />
  <rect x="625" y="80" width="12" height="12" rx="2" fill="#161b22" />
  <rect x="625" y="95" width="12" height="12" rx="2" fill="#0e4429" />
  <rect x="625" y="110" width="12" height="12" rx="2" fill="#0e4429" />
  <rect x="625" y="125" width="12" height="12" rx="2" fill="#39d353" />
  <rect x="640" y="35" width="12" height="12" rx="2" fill="#26a641" />
  <rect x="640" y="50" width="12" height="12" rx="2" fill="#0e4429" />
  <rect x="640" y="65" width="12" height="12" rx="2" fill="#006d32" />
  <rect x="640" y="80" width="12" height="12" rx="2" fill="#006d32" />
  <rect x="640" y="95" width="12" height="12" rx="2" fill="#161b22" />
  <rect x="640" y="110" width="12" height="12" rx="2" fill="#0e4429" />
  <rect x="640" y="125" width="12" height="12" rx="2" fill="#161b22" />
  <rect x="655" y="35" width="12" height="12" rx="2" fill="#161b22" />
  <rect x="655" y="50" width="12" height="12" rx="2" fill="#39d353" />
  <rect x="655" y="65" width="12" height="12" rx="2" fill="#161b22" />
  <rect x="655" y="80" width="12" height="12" rx="2" fill="#161b22" />
  <rect x="655" y="95" width="12" height="12" rx="2" fill="#006d32" />
  <rect x="655" y="110" width="12" height="12" rx="2" fill="#161b22" />
  <rect x="655" y="125" width="12" height="12" rx="2" fill="#161b22" />
  <rect x="670" y="35" width="12" height="12" rx="2" fill="#161b22" />
  <rect x="670" y="50" width="12" height="12" rx="2" fill="#0e4429" />
  <rect x="670" y="65" width="12" height="12" rx="2" fill="#39d353" />
  <rect x="670" y="80" width="12" height="12" rx="2" fill="#161b22" />
  <rect x="670" y="95" width="12" height="12" rx="2" fill="#26a641" />
  <rect x="670" y="110" width="12" height="12" rx="2" fill="#006d32" />
  <rect x="670" y="125" width="12" height="12" rx="2" fill="#006d32" />
  <rect x="685" y="35" width="12" height="12" rx="2" fill="#26a641" />
  <rect x="685" y="50" width="12" height="12" rx="2" fill="#26a641" />
  <rect x="685" y="65" width="12" height="12" rx="2" fill="#161b22" />
  <rect x="685" y="80" width="12" height="12" rx="2" fill="#0e4429" />
  <rect x="685" y="95" width="12" height="12" rx="2" fill="#161b22" />
  <rect x="685" y="110" width="12" height="12" rx="2" fill="#161b22" />
  <rect x="685" y="125" width="12" height="12" rx="2" fill="#161b22" />
  <rect x="700" y="35" width="12" height="12" rx="2" fill="#161b22" />
  <rect x="700" y="50" width="12" height="12" rx="2" fill="#0e4429" />
  <rect x="700" y="65" width="12" height="12" rx="2" fill="#39d353" />
  <rect x="700" y="80" width="12" height="12" rx="2" fill="#39d353" />
  <rect x="700" y="95" width="12" height="12" rx="2" fill="#0e4429" />
  <rect x="700" y="110" width="12" height="12" rx="2" fill="#0e4429" />
  <rect x="700" y="125" width="12" height="12" rx="2" fill="#0e4429" />
  <rect x="715" y="35" width="12" height="12" rx="2" fill="#26a641" />
  <rect x="715" y="50" width="12" height="12" rx="2" fill="#161b22" />
  <rect x="715" y="65" width="12" height="12" rx="2" fill="#006d32" />
  <rect x="715" y="80" width="12" height="12" rx="2" fill="#161b22" />
  <rect x="715" y="95" width="12" height="12" rx="2" fill="#26a641" />
  <rect x="715" y="110" width="12" height="12" rx="2" fill="#161b22" />
  <rect x="715" y="125" width="12" height="12" rx="2" fill="#39d353" />
  <rect x="730" y="35" width="12" height="12" rx="2" fill="#006d32" />
  <rect x="730" y="50" width="12" height="12" rx="2" fill="#39d353" />
  <rect x="730" y="65" width="12" height="12" rx="2" fill="#161b22" />
  <rect x="730" y="80" width="12" height="12" rx="2" fill="#006d32" />
  <rect x="730" y="95" width="12" height="12" rx="2" fill="#0e4429" />
  <rect x="730" y="110" width="12" height="12" rx="2" fill="#39d353" />
  <rect x="730" y="125" width="12" height="12" rx="2" fill="#26a641" />
  <rect x="745" y="35" width="12" height="12" rx="2" fill="#39d353" />
  <rect x="745" y="50" width="12" height="12" rx="2" fill="#26a641" />
  <rect x="745" y="65" width="12" height="12" rx="2" fill="#39d353" />
  <rect x="745" y="80" width="12" height="12" rx="2" fill="#006d32" />
  <rect x="745" y="95" width="12" height="12" rx="2" fill="#26a641" />
  <rect x="745" y="110" width="12" height="12" rx="2" fill="#0e4429" />
  <rect x="745" y="125" width="12" height="12" rx="2" fill="#161b22" />
  <rect x="760" y="35" width="12" height="12" rx="2" fill="#0e4429" />
  <rect x="760" y="50" width="12" height="12" rx="2" fill="#39d353" />
  <rect x="760" y="65" width="12" height="12" rx="2" fill="#39d353" />
  <rect x="760" y="80" width="12" height="12" rx="2" fill="#161b22" />
  <rect x="760" y="95" width="12" height="12" rx="2" fill="#0e4429" />
  <rect x="760" y="110" width="12" height="12" rx="2" fill="#161b22" />
  <rect x="760" y="125" width="12" height="12" rx="2" fill="#161b22" />
  <rect x="775" y="35" width="12" height="12" rx="2" fill="#39d353" />
  <rect x="775" y="50" width="12" height="12" rx="2" fill="#0e4429" />
  <rect x="775" y="65" width="12" height="12" rx="2" fill="#161b22" />
  <rect x="775" y="80" width="12" height="12" rx="2" fill="#26a641" />
  <rect x="775" y="95" width="12" height="12" rx="2" fill="#39d353" />
  <rect x="775" y="110" width="12" height="12" rx="2" fill="#0e4429" />
  <rect x="775" y="125" width="12" height="12" rx="2" fill="#0e4429" />
  <rect x="790" y="35" width="12" height="12" rx="2" fill="#161b22" />
  <rect x="790" y="50" width="12" height="12" rx="2" fill="#26a641" />
  <rect x="790" y="65" width="12" height="12" rx="2" fill="#161b22" />
  <rect x="790" y="80" width="12" height="12" rx="2" fill="#161b22" />
  <rect x="790" y="95" width="12" height="12" rx="2" fill="#0e4429" />
  <rect x="790" y="110" width="12" height="12" rx="2" fill="#006d32" />
  <rect x="790" y="125" width="12" height="12" rx="2" fill="#0e4429" />
  <rect x="805" y="35" width="12" height="12" rx="2" fill="#39d353" />
  <rect x="805" y="50" width="12" height="12" rx="2" fill="#0e4429" />
  <rect x="805" y="65" width="12" height="12" rx="2" fill="#39d353" />
  <rect x="805" y="80" width="12" height="12" rx="2" fill="#26a641" />
  <rect x="805" y="95" width="12" height="12" rx="2" fill="#0e4429" />
  <rect x="805" y="110" width="12" height="12" rx="2" fill="#26a641" />
  <rect x="805" y="125" width="12" height="12" rx="2" fill="#161b22" />
  <rect x="820" y="35" width="12" height="12" rx="2" fill="#161b22" />
  <rect x="820" y="50" width="12" height="12" rx="2" fill="#39d353" />
  <rect x="820" y="65" width="12" height="12" rx="2" fill="#006d32" />
  <rect x="820" y="80" width="12" height="12" rx="2" fill="#161b22" />
  <rect x="820" y="95" width="12" height="12" rx="2" fill="#006d32" />
  <rect x="820" y="110" width="12" height="12" rx="2" fill="#006d32" />
  <rect x="820" y="125" width="12" height="12" rx="2" fill="#006d32" />
  <text x="10" y="60" font-family="-apple-system,BlinkMacSystemFont,Segoe UI,Helvetica,Arial,sans-serif" font-size="9" fill="#8b949e" text-anchor="start">Mon</text>
  <text x="10" y="90" font-family="-apple-system,BlinkMacSystemFont,Segoe UI,Helvetica,Arial,sans-serif" font-size="9" fill="#8b949e" text-anchor="start">Wed</text>
  <text x="10" y="120" font-family="-apple-system,BlinkMacSystemFont,Segoe UI,Helvetica,Arial,sans-serif" font-size="9" fill="#8b949e" text-anchor="start">Fri</text>
  <text x="40" y="25" font-family="-apple-system,BlinkMacSystemFont,Segoe UI,Helvetica,Arial,sans-serif" font-size="9" fill="#8b949e" text-anchor="start">Jan</text>
  <text x="115" y="25" font-family="-apple-system,BlinkMacSystemFont,Segoe UI,Helvetica,Arial,sans-serif" font-size="9" fill="#8b949e" text-anchor="start">Feb</text>
  <text x="175" y="25" font-family="-apple-system,BlinkMacSystemFont,Segoe UI,Helvetica,Arial,sans-serif" font-size="9" fill="#8b949e" text-anchor="start">Mar</text>
  <text x="235" y="25" font-family="-apple-system,BlinkMacSystemFont,Segoe UI,Helvetica,Arial,sans-serif" font-size="9" fill="#8b949e" text-anchor="start">Apr</text>
  <text x="310" y="25" font-family="-apple-system,BlinkMacSystemFont,Segoe UI,Helvetica,Arial,sans-serif" font-size="9" fill="#8b949e" text-anchor="start">May</text>
  <text x="370" y="25" font-family="-apple-system,BlinkMacSystemFont,Segoe UI,Helvetica,Arial,sans-serif" font-size="9" fill="#8b949e" text-anchor="start">Jun</text>
  <text x="445" y="25" font-family="-apple-system,BlinkMacSystemFont,Segoe UI,Helvetica,Arial,sans-serif" font-size="9" fill="#8b949e" text-anchor="start">Jul</text>
  <text x="505" y="25" font-family="-apple-system,BlinkMacSystemFont,Segoe UI,Helvetica,Arial,sans-serif" font-size="9" fill="#8b949e" text-anchor="start">Aug</text>
  <text x="580" y="25" font-family="-apple-system,BlinkMacSystemFont,Segoe UI,Helvetica,Arial,sans-serif" font-size="9" fill="#8b949e" text-anchor="start">Sep</text>
  <text x="640" y="25" font-family="-apple-system,BlinkMacSystemFont,Segoe UI,Helvetica,Arial,sans-serif" font-size="9" fill="#8b949e" text-anchor="start">Oct</text>
  <text x="700" y="25" font-family="-apple-system,BlinkMacSystemFont,Segoe UI,Helvetica,Arial,sans-serif" font-size="9" fill="#8b949e" text-anchor="start">Nov</text>
  <text x="775" y="25" font-family="-apple-system,BlinkMacSystemFont,Segoe UI,Helvetica,Arial,sans-serif" font-size="9" fill="#8b949e" text-anchor="start">Dec</text>
  <text x="700" y="157" font-family="-apple-system,BlinkMacSystemFont,Segoe UI,Helvetica,Arial,sans-serif" font-size="9" fill="#8b949e">Less</text>
  <rect x="730" y="148" width="12" height="12" rx="2" fill="#161b22" />
  <rect x="745" y="148" width="12" height="12" rx="2" fill="#0e4429" />
  <rect x="760" y="148" width="12" height="12" rx="2" fill="#006d32" />
  <rect x="775" y="148" width="12" height="12" rx="2" fill="#26a641" />
  <rect x="790" y="148" width="12" height="12" rx="2" fill="#39d353" />
  <text x="810" y="157" font-family="-apple-system,BlinkMacSystemFont,Segoe UI,Helvetica,Arial,sans-serif" font-size="9" fill="#8b949e">More</text>
  <g style="filter: url(#dino-glow);">
    <animateTransform attributeName="transform" type="translate"
      values="-40 120; 180 120; 220 90; 260 120; 430 120; 470 80; 510 120; 660 120; 700 90; 740 120; 890 120"
      dur="14s" repeatCount="indefinite" />
    <g>
      <rect x="10.5" y="0" width="1.5" height="1.5" fill="#5eead4" /><rect x="12" y="0" width="1.5" height="1.5" fill="#5eead4" /><rect x="13.5" y="0" width="1.5" height="1.5" fill="#5eead4" /><rect x="15" y="0" width="1.5" height="1.5" fill="#5eead4" /><rect x="16.5" y="0" width="1.5" height="1.5" fill="#5eead4" /><rect x="18" y="0" width="1.5" height="1.5" fill="#5eead4" /><rect x="9" y="1.5" width="1.5" height="1.5" fill="#5eead4" /><rect x="10.5" y="1.5" width="1.5" height="1.5" fill="#5eead4" /><rect x="12" y="1.5" width="1.5" height="1.5" fill="#5eead4" /><rect x="13.5" y="1.5" width="1.5" height="1.5" fill="#5eead4" /><rect x="15" y="1.5" width="1.5" height="1.5" fill="#5eead4" /><rect x="16.5" y="1.5" width="1.5" height="1.5" fill="#5eead4" /><rect x="18" y="1.5" width="1.5" height="1.5" fill="#5eead4" /><rect x="19.5" y="1.5" width="1.5" height="1.5" fill="#5eead4" /><rect x="21" y="1.5" width="1.5" height="1.5" fill="#5eead4" /><rect x="9" y="3" width="1.5" height="1.5" fill="#5eead4" /><rect x="10.5" y="3" width="1.5" height="1.5" fill="#5eead4" /><rect x="13.5" y="3" width="1.5" height="1.5" fill="#5eead4" /><rect x="15" y="3" width="1.5" height="1.5" fill="#5eead4" /><rect x="16.5" y="3" width="1.5" height="1.5" fill="#5eead4" /><rect x="18" y="3" width="1.5" height="1.5" fill="#5eead4" /><rect x="19.5" y="3" width="1.5" height="1.5" fill="#5eead4" /><rect x="21" y="3" width="1.5" height="1.5" fill="#5eead4" /><rect x="9" y="4.5" width="1.5" height="1.5" fill="#5eead4" /><rect x="10.5" y="4.5" width="1.5" height="1.5" fill="#5eead4" /><rect x="12" y="4.5" width="1.5" height="1.5" fill="#5eead4" /><rect x="13.5" y="4.5" width="1.5" height="1.5" fill="#5eead4" /><rect x="15" y="4.5" width="1.5" height="1.5" fill="#5eead4" /><rect x="16.5" y="4.5" width="1.5" height="1.5" fill="#5eead4" /><rect x="9" y="6" width="1.5" height="1.5" fill="#5eead4" /><rect x="10.5" y="6" width="1.5" height="1.5" fill="#5eead4" /><rect x="12" y="6" width="1.5" height="1.5" fill="#5eead4" /><rect x="13.5" y="6" width="1.5" height="1.5" fill="#5eead4" /><rect x="15" y="6" width="1.5" height="1.5" fill="#5eead4" /><rect x="16.5" y="6" width="1.5" height="1.5" fill="#5eead4" /><rect x="18" y="6" width="1.5" height="1.5" fill="#5eead4" /><rect x="19.5" y="6" width="1.5" height="1.5" fill="#5eead4" /><rect x="9" y="7.5" width="1.5" height="1.5" fill="#5eead4" /><rect x="10.5" y="7.5" width="1.5" height="1.5" fill="#5eead4" /><rect x="12" y="7.5" width="1.5" height="1.5" fill="#5eead4" /><rect x="13.5" y="7.5" width="1.5" height="1.5" fill="#5eead4" /><rect x="1.5" y="9" width="1.5" height="1.5" fill="#5eead4" /><rect x="7.5" y="9" width="1.5" height="1.5" fill="#5eead4" /><rect x="9" y="9" width="1.5" height="1.5" fill="#5eead4" /><rect x="10.5" y="9" width="1.5" height="1.5" fill="#5eead4" /><rect x="12" y="9" width="1.5" height="1.5" fill="#5eead4" /><rect x="1.5" y="10.5" width="1.5" height="1.5" fill="#5eead4" /><rect x="3" y="10.5" width="1.5" height="1.5" fill="#5eead4" /><rect x="7.5" y="10.5" width="1.5" height="1.5" fill="#5eead4" /><rect x="9" y="10.5" width="1.5" height="1.5" fill="#5eead4" /><rect x="10.5" y="10.5" width="1.5" height="1.5" fill="#5eead4" /><rect x="1.5" y="12" width="1.5" height="1.5" fill="#5eead4" /><rect x="3" y="12" width="1.5" height="1.5" fill="#5eead4" /><rect x="4.5" y="12" width="1.5" height="1.5" fill="#5eead4" /><rect x="7.5" y="12" width="1.5" height="1.5" fill="#5eead4" /><rect x="9" y="12" width="1.5" height="1.5" fill="#5eead4" /><rect x="10.5" y="12" width="1.5" height="1.5" fill="#5eead4" /><rect x="3" y="13.5" width="1.5" height="1.5" fill="#5eead4" /><rect x="4.5" y="13.5" width="1.5" height="1.5" fill="#5eead4" /><rect x="6" y="13.5" width="1.5" height="1.5" fill="#5eead4" /><rect x="7.5" y="13.5" width="1.5" height="1.5" fill="#5eead4" /><rect x="9" y="13.5" width="1.5" height="1.5" fill="#5eead4" /><rect x="10.5" y="13.5" width="1.5" height="1.5" fill="#5eead4" /><rect x="4.5" y="15" width="1.5" height="1.5" fill="#5eead4" /><rect x="6" y="15" width="1.5" height="1.5" fill="#5eead4" /><rect x="7.5" y="15" width="1.5" height="1.5" fill="#5eead4" /><rect x="9" y="15" width="1.5" height="1.5" fill="#5eead4" /><rect x="6" y="16.5" width="1.5" height="1.5" fill="#5eead4" /><rect x="7.5" y="16.5" width="1.5" height="1.5" fill="#5eead4" />
      <!-- Eye -->
      <rect x="12" y="3" width="1.5" height="1.5" fill="#0d1117" />
      <!-- Leg 1 -->
      <g class="leg-1"><rect x="6" y="18" width="1.5" height="1.5" fill="#5eead4" /><rect x="6" y="19.5" width="1.5" height="1.5" fill="#5eead4" /><rect x="6" y="21" width="1.5" height="1.5" fill="#5eead4" /><rect x="7.5" y="21" width="1.5" height="1.5" fill="#5eead4" /></g>
      <!-- Leg 2 -->
      <g class="leg-2"><rect x="7.5" y="18" width="1.5" height="1.5" fill="#5eead4" /><rect x="7.5" y="19.5" width="1.5" height="1.5" fill="#5eead4" /><rect x="7.5" y="21" width="1.5" height="1.5" fill="#5eead4" /><rect x="9" y="21" width="1.5" height="1.5" fill="#5eead4" /></g>
    </g>
  </g>
</svg>